<svg xmlns="http://www.w3.org/2000/svg" xmlns:xlink="http://www.w3.org/1999/xlink" version="1.1" id="svg2" height="406.007" width="329.778"><defs id="defs4"><linearGradient id="linearGradient967"><stop id="stop963" offset="0" style="stop-color:#c2c2c2;stop-opacity:1"/><stop id="stop965" offset="1" style="stop-color:#9f9f9f;stop-opacity:1"/></linearGradient><linearGradient gradientTransform="translate(-45.255 .354)" gradientUnits="userSpaceOnUse" y2="108.776" x2="658.458" y1="6.6" x1="660.067" id="linearGradient969" xlink:href="#linearGradient967"/></defs><g transform="translate(-399.134 -122.79)" id="layer1"><rect ry="7.014" y="122.791" x="399.134" height="406.007" width="329.778" id="rect1017" style="fill:#eee;fill-opacity:1;fill-rule:nonzero;stroke:none;stroke-width:1.59331px;stroke-linecap:round;stroke-linejoin:round;stroke-miterlimit:4;stroke-dasharray:none;stroke-opacity:1"/><g transform="translate(43.778 191.042)" id="g1015"><rect style="fill:#9f9f9f;fill-opacity:1;fill-rule:nonzero;stroke:none;stroke-width:2.2995px;stroke-linecap:round;stroke-linejoin:round;stroke-miterlimit:4;stroke-dasharray:none;stroke-opacity:1" id="rect1002" width="82.49" height="90.47" x="398.758" y="178.747" ry="8.397" transform="rotate(-16.343)"/><g id="g1000" transform="rotate(16.32 538.136 -184.897)"><rect ry="4.596" y="1.65" x="547.186" height="115.966" width="107.834" id="rect961" style="fill:url(#linearGradient969);fill-opacity:1;fill-rule:nonzero;stroke:#fff;stroke-width:5.398px;stroke-linecap:round;stroke-linejoin:round;stroke-miterlimit:4;stroke-dasharray:none"/><g style="stroke:#fff;stroke-width:13.0708px;stroke-miterlimit:4;stroke-dasharray:none;stroke-opacity:1" transform="matrix(.17265 0 0 .17265 512.493 -6.33)" id="g875"><path style="color:#000;clip-rule:nonzero;visibility:visible;opacity:1;isolation:auto;mix-blend-mode:normal;color-interpolation:srgb;color-interpolation-filters:linearrgb;solid-color:#000;solid-opacity:1;fill:#ccc;fill-opacity:1;fill-rule:evenodd;stroke:#fff;stroke-width:13.0708px;stroke-linecap:round;stroke-linejoin:round;stroke-miterlimit:4;stroke-dasharray:none;stroke-dashoffset:0;stroke-opacity:1;marker:none;color-rendering:auto;image-rendering:auto;shape-rendering:auto;text-rendering:auto;enable-background:accumulate;display:inline;overflow:visible" id="rect3338" d="M270 107.362h491.106V557.36H270z"/><path style="color:#000;clip-rule:nonzero;visibility:visible;opacity:1;isolation:auto;mix-blend-mode:normal;color-interpolation:srgb;color-interpolation-filters:linearrgb;solid-color:#000;solid-opacity:1;fill:#fff;fill-opacity:1;fill-rule:evenodd;stroke:#fff;stroke-width:13.0708px;stroke-linecap:round;stroke-linejoin:round;stroke-miterlimit:4;stroke-dasharray:none;stroke-dashoffset:0;stroke-opacity:1;marker:none;color-rendering:auto;image-rendering:auto;shape-rendering:auto;text-rendering:auto;enable-background:accumulate;display:inline;overflow:visible" id="rect3342" d="M270 107.362h491.106v210H270z"/><path style="color:#000;clip-rule:nonzero;visibility:visible;opacity:1;isolation:auto;mix-blend-mode:normal;color-interpolation:srgb;color-interpolation-filters:linearrgb;solid-color:#000;solid-opacity:1;fill:#ccc;fill-opacity:1;fill-rule:evenodd;stroke:#fff;stroke-width:13.0708px;stroke-linecap:round;stroke-linejoin:round;stroke-miterlimit:4;stroke-dasharray:none;stroke-dashoffset:0;stroke-opacity:1;marker:none;paint-order:stroke;color-rendering:auto;image-rendering:auto;shape-rendering:auto;text-rendering:auto;enable-background:accumulate;display:inline;overflow:visible" d="m300 317.363 38.461-53.539 60.531-45.16 15.883 18.573 13.613-38.683 8.201-2.982L450 167.362l180 180" id="path3344"/><path style="color:#000;clip-rule:nonzero;visibility:visible;opacity:1;isolation:auto;mix-blend-mode:normal;color-interpolation:srgb;color-interpolation-filters:linearrgb;solid-color:#000;solid-opacity:1;fill:#b3b3b3;fill-opacity:1;fill-rule:evenodd;stroke:#fff;stroke-width:13.0708px;stroke-linecap:round;stroke-linejoin:round;stroke-miterlimit:4;stroke-dasharray:none;stroke-dashoffset:0;stroke-opacity:1;marker:none;paint-order:stroke;color-rendering:auto;image-rendering:auto;shape-rendering:auto;text-rendering:auto;enable-background:accumulate;display:inline;overflow:visible" d="M180 60a885.559 885.559 0 0 1 17.168 87.877l-22.064-7.16-46.112-29.416 5.324 46.426-1.615 24.787 10.053 30.377 73.185-11.756L300 180l-47.8-77.434-9.7 14.934-27.125-22.125Z" transform="translate(270 107.362)" id="path3390-0"/><path id="path3358" d="m420 347.363 81.9-74.43 18.505-9.68 23.651-44.19 25.944-21.7 180 180" style="color:#000;clip-rule:nonzero;visibility:visible;opacity:1;isolation:auto;mix-blend-mode:normal;color-interpolation:srgb;color-interpolation-filters:linearrgb;solid-color:#000;solid-opacity:1;fill:#ccc;fill-opacity:1;fill-rule:evenodd;stroke:#fff;stroke-width:13.0708px;stroke-linecap:round;stroke-linejoin:round;stroke-miterlimit:4;stroke-dasharray:none;stroke-dashoffset:0;stroke-opacity:1;marker:none;paint-order:stroke;color-rendering:auto;image-rendering:auto;shape-rendering:auto;text-rendering:auto;enable-background:accumulate;display:inline;overflow:visible"/><path style="color:#000;clip-rule:nonzero;visibility:visible;opacity:1;isolation:auto;mix-blend-mode:normal;color-interpolation:srgb;color-interpolation-filters:linearrgb;solid-color:#000;solid-opacity:1;fill:#b3b3b3;fill-opacity:1;fill-rule:evenodd;stroke:#fff;stroke-width:13.0708px;stroke-linecap:round;stroke-linejoin:round;stroke-miterlimit:4;stroke-dasharray:none;stroke-dashoffset:0;stroke-opacity:1;marker:none;paint-order:stroke;color-rendering:auto;image-rendering:auto;shape-rendering:auto;text-rendering:auto;enable-background:accumulate;display:inline;overflow:visible" d="m570 197.363 35.939 80.913v60.22l22.458 19.467a81.558 81.558 0 0 1 22.445-15.705c14.824-7.004 31.338-9.36 47.17-13.622 6.428-1.73 12.907-3.854 18.214-7.872a29.833 29.833 0 0 0 3.774-3.401h-30l-40.522-40.55-29.856-48.92-10.253 8.839z" id="path3386"/><path style="color:#000;clip-rule:nonzero;visibility:visible;opacity:1;isolation:auto;mix-blend-mode:normal;color-interpolation:srgb;color-interpolation-filters:linearrgb;solid-color:#000;solid-opacity:1;fill:#fff;fill-opacity:1;fill-rule:evenodd;stroke:#fff;stroke-width:13.0708px;stroke-linecap:round;stroke-linejoin:round;stroke-miterlimit:4;stroke-dasharray:none;stroke-dashoffset:0;stroke-opacity:1;marker:none;paint-order:stroke;color-rendering:auto;image-rendering:auto;shape-rendering:auto;text-rendering:auto;enable-background:accumulate;display:inline;overflow:visible" d="M420 557.362c-.417-9.6-8.818-17.609 17.125-30.668 31.832-16.024 125.895-35.888 152.154-59.984 19.427-17.827-70.416-37.67-55.02-59.073 6.982-9.706 59.038-19.97 82.147-30.274 21.906-9.768 15.141-19.804 31.405-29.975 15.709-9.826 68.35-19.774 72.189-30.025-10.414 10.521-68.834 20.403-90 30-22.338 10.128-21.469 19.93-49.431 29.483-30.125 10.293-89.142 20.553-102.708 30.517-28.413 20.868 46.863 42.6 16.202 60-41.52 23.563-149.341 43.294-194.063 60-30.904 11.543-28.408 17.748-30 30" id="path3370"/></g></g></g><text id="text1021" y="412.125" x="562.007" style="fill:#767676;fill-opacity:1;stroke:none;font-family:sans-serif;font-size:32px;font-style:normal;font-weight:400;line-height:1.25" xml:space="preserve"><tspan style="font-variant:normal;-inkscape-font-specification:&quot;sans-serif Bold&quot;;text-align:center;text-anchor:middle;font-family:sans-serif;font-size:32px;font-style:normal;font-weight:700;font-stretch:100%" y="412.125" x="562.007" id="tspan1019">NO IMAGE</tspan><tspan style="font-variant:normal;-inkscape-font-specification:&quot;sans-serif Bold&quot;;text-align:center;text-anchor:middle;font-family:sans-serif;font-size:32px;font-style:normal;font-weight:700;font-stretch:100%" id="tspan1023" y="452.125" x="562.007">AVAILABLE</tspan></text></g></svg>